<?xml version="1.0" encoding="utf-8"?>
<!-- Generator: Adobe Illustrator 19.0.0, SVG Export Plug-In . SVG Version: 6.00 Build 0)  -->
<svg version="1.1" id="Capa_1" xmlns="http://www.w3.org/2000/svg" xmlns:xlink="http://www.w3.org/1999/xlink" x="0px" y="0px"
	 viewBox="-258 407.9 77.9 26" style="enable-background:new -258 407.9 77.9 26;" xml:space="preserve">
<style type="text/css">
	.st0{fill:#7F1A31;}
	.st1{fill:none;}
	.st2{enable-background:new    ;}
	.st3{fill:#FFFFFF;}
</style>
<rect id="XMLID_1_" x="-258" y="407.9" class="st0" width="77.9" height="26"/>
<rect x="-258" y="415.6" class="st1" width="77.9" height="10.5"/>
<g class="st2">
	<path class="st3" d="M-233.5,425.2c0,0.1,0,0.1,0,0.2c0,0,0,0.1,0,0.2c-0.1,0-0.1,0-0.2,0.1c0,0.1-0.1,0.1-0.1,0.2c0,0-0.1,0-0.1,0
		c0,0-0.1,0-0.1,0c-0.2-0.1-0.3-0.1-0.4-0.1c-0.1,0-0.2,0-0.2-0.1c-0.1,0-0.1,0-0.2,0s-0.1,0-0.2,0c-0.1,0-0.1,0-0.2,0s-0.1,0-0.2,0
		c-0.1,0-0.2,0-0.2,0s-0.1,0-0.2,0c-0.1,0-0.1,0-0.1-0.1c0-0.1-0.1-0.1-0.2,0c-0.1-0.1-0.2-0.2-0.2-0.2c-0.1-0.1-0.2-0.1-0.3-0.2
		c0,0,0-0.1-0.1-0.1c0,0,0,0,0-0.1c0,0-0.1,0-0.1-0.1c0,0-0.1,0-0.1,0c0-0.1-0.1-0.2-0.1-0.2c-0.1-0.1-0.1-0.1-0.1-0.2
		c0,0,0-0.1-0.1-0.1c0,0-0.1,0-0.1-0.1c-0.1-0.1-0.1-0.2-0.1-0.2c0,0,0,0,0-0.1c0,0-0.1-0.1-0.1-0.1c0,0-0.1,0-0.1,0
		c0-0.1-0.1-0.2-0.2-0.2c-0.1-0.1-0.1-0.1-0.2-0.2c0-0.1,0-0.2-0.1-0.2c-0.1-0.1-0.1-0.1-0.1-0.2c0,0-0.1,0.1-0.1,0.1
		c-0.1,0-0.1,0-0.2,0c-0.1,0-0.1,0-0.2,0s-0.1,0-0.1,0.1c-0.1,0-0.2,0-0.3,0c-0.1,0-0.2,0-0.3,0c-0.1,0-0.1,0-0.1,0.1
		s-0.1,0.1-0.1,0.1c0,0-0.1-0.1-0.2-0.1c-0.1,0-0.1,0-0.1,0.1c-0.2,0-0.2,0-0.2,0c0,0,0,0-0.1,0.1c-0.1,0-0.3,0-0.4,0
		c-0.1,0-0.3,0.1-0.4,0c0,0-0.1,0-0.1,0.1c0,0-0.1,0.1-0.1,0.1c-0.1,0-0.1,0-0.2-0.1c-0.1,0-0.2,0-0.2,0l-0.1,0.2
		c0,0.1-0.1,0.2-0.1,0.2c-0.1,0-0.1,0.1-0.1,0.2c-0.1,0-0.1,0.1-0.2,0.1c0,0.1,0,0.2-0.1,0.3c-0.1,0.1-0.1,0.2-0.1,0.3
		c-0.1,0-0.1,0-0.1,0c0,0.1,0,0.1-0.1,0c0,0,0,0.1-0.1,0.1c0,0-0.1,0.1-0.1,0.1c-0.2,0-0.3,0.1-0.3,0.2c-0.3,0-0.4,0.1-0.6,0.3
		c0,0-0.1,0-0.2,0.1c-0.1,0.1-0.2,0.1-0.2,0.1c0,0-0.1,0-0.2,0c-0.1,0-0.2,0-0.2,0.1c-0.1,0-0.2,0-0.2,0c-0.1,0-0.2,0.1-0.4,0.1
		c-0.2,0-0.3,0-0.4,0c-0.1,0-0.2,0.1-0.2,0c0,0-0.1,0-0.1-0.1c0,0-0.1,0-0.1,0c0,0-0.1,0-0.1,0c0,0-0.1,0-0.1,0c0,0-0.1,0-0.1,0
		c-0.1,0-0.1,0-0.2,0c-0.1,0-0.1,0-0.2,0c-0.1-0.1-0.1-0.1-0.2-0.1c0,0-0.1,0-0.1,0c0-0.1-0.1-0.1-0.1-0.1s-0.1-0.1-0.1-0.1
		c-0.1-0.1-0.2-0.1-0.3-0.1c-0.1,0-0.1-0.1-0.1-0.2c-0.1-0.1-0.2-0.2-0.3-0.2c0-0.1,0-0.2-0.1-0.3s-0.1-0.1-0.2-0.1
		c-0.1-0.1-0.1-0.2-0.1-0.2c0,0,0-0.1,0-0.1c0,0,0-0.1-0.1-0.2s-0.1-0.2-0.1-0.3c0-0.1-0.1-0.2-0.1-0.3c0-0.1-0.1-0.2-0.1-0.2
		c0-0.1,0-0.1,0-0.2c0,0,0-0.1,0-0.2c0-0.1,0-0.2,0-0.2c0,0,0-0.1,0-0.2c0.1-0.1,0.2-0.2,0.2-0.2c0,0,0-0.1,0.1-0.1c0,0,0-0.1,0-0.1
		s0,0,0-0.1c0.1,0,0.1,0,0.1-0.1c0,0,0-0.1,0.1-0.1s0-0.1,0.1-0.1c0,0,0.1-0.1,0.1-0.1c0-0.1,0-0.2,0.1-0.3c0-0.1,0.1-0.1,0.2-0.2
		c0.1-0.1,0.1-0.2,0.2-0.2s0.1-0.1,0.1-0.1c0.1,0,0.2-0.1,0.2-0.1c0.1,0,0.2-0.1,0.2-0.1c0,0,0.1,0,0.1,0c0,0,0.1,0,0.1,0
		c0.1,0,0.1,0,0.1-0.1c0,0,0.1,0,0.1,0c0.2,0,0.3,0,0.4,0c0.1,0,0.1,0,0.2,0c0,0,0.1,0,0.1,0c0,0,0.1,0,0.1,0c0.1,0,0.2,0,0.2,0
		c0.1,0,0.1,0,0.2,0.1c0,0,0.1,0,0.1,0s0.1,0,0.1,0c0,0,0,0,0.1,0c0,0,0,0,0.1,0c0.1,0.1,0.1,0.1,0.2,0.1c0,0,0,0,0.1,0
		c0.1,0,0.1,0.1,0.2,0.2s0.1,0.1,0.3,0.2c0,0.1,0,0.1,0,0.2c0,0.1,0.1,0.2,0.1,0.2c0,0.1,0,0.1,0,0.2c0,0.1,0,0.1,0,0.2
		c0,0,0,0.1,0,0.1c0,0,0,0.1,0,0.1c0,0,0,0.1,0,0.1c0,0,0,0.1-0.1,0.1c0,0.1,0.1,0.1,0.1,0.2c0,0.1,0,0.1,0,0.2
		c-0.1,0-0.1,0-0.1,0.1c0,0,0,0.1-0.1,0c0,0.1,0,0.2-0.1,0.3c-0.1,0-0.2,0.1-0.2,0.2c-0.2-0.1-0.2-0.1-0.3-0.1c0,0-0.1-0.1-0.1-0.1
		c-0.1,0-0.1,0-0.1-0.1c0,0,0-0.1,0-0.1c-0.1-0.1-0.2-0.1-0.2-0.1c0,0,0,0-0.1-0.1c0-0.1,0-0.2,0-0.2c0-0.1,0-0.1,0-0.2
		c0.1-0.1,0.1-0.1,0.1-0.2c0,0,0.1-0.1,0.1-0.2c0-0.1,0-0.2,0-0.2c0,0-0.1-0.1-0.1-0.1c0,0-0.1,0-0.2-0.1c-0.1,0-0.1-0.1-0.1-0.1
		c-0.1,0-0.1,0-0.2,0s-0.1,0-0.2,0c-0.3,0-0.4,0-0.5,0.1c0,0.1-0.1,0.1-0.2,0.1c0,0.1-0.1,0.2-0.1,0.3c-0.1,0.1-0.1,0.2-0.1,0.3
		c-0.1,0.1-0.2,0.2-0.2,0.3c0,0.1,0,0.1-0.1,0.2c0,0.1,0,0.2,0,0.2c0,0.1,0,0.2,0,0.3c0,0.1,0.1,0.2,0.1,0.3c0,0.2,0,0.3,0,0.4
		c0,0.1,0.1,0.1,0.1,0.2c0,0.1,0.1,0.1,0.1,0.1c0,0,0.1,0,0.1,0.1c0.1,0.2,0.2,0.2,0.2,0.3c0.1,0.1,0.3,0.2,0.4,0.3
		c0.2,0.1,0.3,0.1,0.5,0.1c0.1,0,0.1,0,0.1,0c0,0,0.1,0,0.1,0c0.1,0,0.2,0,0.2,0s0.1,0,0.2-0.1c0.1,0,0.2,0,0.2,0s0.1,0,0.1,0
		c0.1,0,0.1,0,0.2,0c0,0,0.1,0,0.1,0c0,0,0.1,0,0.1-0.1c0,0,0.1-0.1,0.1-0.2c0.1,0,0.2-0.1,0.2-0.2c0.1,0,0.1,0,0.2-0.1
		s0.1-0.1,0.2-0.1c0,0,0.1-0.1,0.1-0.1c0,0,0-0.1,0.1-0.1c0.1,0,0.1,0,0.2-0.1c0-0.1,0.1-0.1,0.2-0.1c0-0.1,0.1-0.2,0.2-0.3
		c0.1-0.1,0.1-0.2,0.2-0.3c0.1-0.2,0.1-0.3,0.2-0.3c0,0,0.1-0.1,0.1-0.1c0-0.1,0-0.1,0.1-0.2c0-0.1,0-0.1,0.1-0.2
		c0-0.1,0-0.2,0.1-0.2c0-0.1,0-0.3,0.1-0.4c0.1-0.1,0.1-0.3,0.1-0.4c0.1-0.1,0.1-0.1,0.1-0.2c0-0.1,0.1-0.2,0.1-0.2c0,0,0-0.1,0-0.2
		c0-0.1,0-0.1,0-0.2c0.1,0,0.1-0.1,0.1-0.1s0-0.1,0-0.1c0.1,0,0.1,0,0.1-0.1c0,0,0-0.1,0.1-0.1c0-0.1,0-0.1,0-0.2
		c0-0.1,0.1-0.1,0.1-0.2c0,0,0-0.1,0-0.1c0,0,0-0.1,0-0.1c0.1-0.2,0.1-0.3,0.1-0.3c0,0,0-0.1,0-0.1c0-0.1,0-0.2,0.1-0.2
		s0-0.2,0.1-0.2c0,0,0-0.1,0-0.1c0,0,0-0.1,0-0.1c0-0.1,0-0.2,0-0.2c0-0.1,0-0.2,0.1-0.2c0,0,0-0.1,0.1-0.1s0-0.1,0-0.1
		c0-0.1,0-0.1,0-0.2c0-0.1,0-0.2,0-0.2c0-0.1,0-0.2,0-0.2s0-0.1,0-0.2c0-0.1,0-0.1,0-0.1c0,0,0.1,0,0.1,0c-0.1-0.1-0.1-0.2,0-0.2
		c0,0,0.1-0.1,0.1-0.1c0-0.1,0.1-0.2,0-0.3c0-0.1,0-0.2,0-0.3c0-0.2,0.1-0.3,0-0.3c0-0.1,0.1-0.2,0.1-0.3s0-0.2,0.1-0.3
		c0,0,0-0.1,0-0.1s0-0.1,0-0.1c0.1-0.1,0.1-0.2,0.2-0.2c0-0.1,0-0.1,0-0.1s0-0.1,0-0.1c0,0,0-0.1-0.1-0.1c0.1-0.1,0.1-0.2,0.1-0.3
		c0,0,0-0.1,0-0.1c0.1-0.1,0.1-0.1,0.1-0.2c0,0,0,0,0.1,0c0.1-0.2,0.2-0.3,0.3-0.3c0.1,0,0.2-0.1,0.3-0.1c0.1,0,0.1,0.1,0.1,0.1
		c0,0,0.1,0,0.1,0c0.1,0.1,0.1,0.1,0.2,0.1s0.1,0.1,0.2,0.1c0,0.1,0,0.2,0,0.3c0,0.1,0,0.2,0,0.3c0,0.1,0,0.1,0.1,0.1
		c0,0,0.1,0.1,0,0.1l-0.1,0.2c0.1,0.1,0.1,0.2,0,0.3c0,0.1,0,0.1,0,0.2c0,0.1,0,0.2,0,0.3c0,0.1,0,0.2,0,0.3
		c0.1,0.1,0.1,0.2,0.1,0.3c0,0.1,0,0.2,0,0.3c0,0.1,0,0.1,0,0.2c0,0.1,0,0.1,0,0.2c0,0.1,0.1,0.2,0,0.3c0,0,0,0.1,0,0
		c0,0.2,0,0.4,0,0.5s0.1,0.3,0.1,0.5c-0.1,0.1-0.1,0.1-0.1,0.2c0,0.1,0,0.2,0,0.3s0,0.2,0.1,0.3c0,0.1,0,0.1,0,0.2
		c0,0.1,0,0.2,0,0.2s0,0.1,0,0.1c0,0.1,0,0.1,0,0.2c0,0.1,0,0.1,0.1,0.1c0,0,0,0.1,0,0.1c0,0.1,0,0.1,0,0.1c0,0.1,0,0.1,0,0.1
		c0,0,0.1,0,0.1,0.1c0,0.1,0,0.2,0,0.2c0,0.1,0.1,0.1,0.1,0.2c0,0.1,0,0.2,0,0.2c0,0.1,0,0.1,0.1,0.2c0,0.1,0.1,0.1,0.1,0.2
		c0,0.1,0,0.1,0,0.2c0.1,0.1,0.1,0.2,0.1,0.3c0,0.1,0.1,0.2,0.2,0.2c0,0.1,0,0.1,0,0.1c0,0,0,0,0,0.1c0.1,0,0.3,0,0.4-0.1
		c0.1,0,0.3,0,0.4,0c0.1-0.1,0.1-0.1,0.2-0.1c0,0,0.1,0,0.2,0c0,0,0.1,0,0.1-0.1c0,0,0.1,0,0.1-0.1c0.1,0,0.2,0,0.2-0.1c0,0,0,0,0,0
		c0,0,0.1,0,0.1,0c0.1,0,0.1,0,0.1,0c0.1,0.1,0.2,0.1,0.2,0.1c0,0,0.1,0,0.1,0c0,0.1,0,0.1,0.1,0.2c0,0.1,0,0.1,0,0.2
		c-0.1,0.1-0.1,0.1-0.2,0.2c0,0-0.1,0.1-0.1,0.1c-0.1,0-0.1,0-0.2,0.1s-0.1,0-0.2,0.1c-0.1,0-0.1,0.1-0.2,0.1
		c-0.1,0.1-0.1,0.1-0.2,0.1c-0.1,0-0.2,0-0.2,0c0,0,0,0,0,0c-0.1,0-0.1,0-0.2,0c-0.1,0-0.1,0-0.2,0c0,0,0,0.1,0,0.1
		c0,0.1,0,0.1,0.1,0.2s0.1,0.1,0.1,0.1c0,0,0.1,0.1,0.1,0.1c0,0.1,0,0.1,0,0.2s0.1,0.1,0.2,0.1c0,0.1,0.1,0.2,0.1,0.3
		c0,0,0.1,0.1,0.1,0.2c0.1,0.1,0.2,0.1,0.2,0.1c0,0,0,0.1,0.1,0.1c0,0,0.1,0,0.1,0.1c0,0,0,0.1,0.1,0.1c0,0,0,0,0.1,0.1
		c0,0,0.1,0,0.1,0s0.1,0,0.2,0.1c0.1,0,0.1,0,0.2,0.1s0.1,0.1,0.1,0.1c0.2,0,0.2-0.1,0.3,0c0,0,0.1,0,0.1,0.1c0.1,0,0.1,0,0.2,0
		c0.1,0,0.1,0,0.2,0c0,0,0.1,0,0.1,0.1s0.1,0,0.1,0c0.1,0.1,0.1,0.1,0.1,0.2C-233.6,425.1-233.6,425.2-233.5,425.2z M-238.6,422
		c0-0.1,0-0.2,0-0.2c0,0-0.1-0.1-0.1-0.2c0,0-0.1-0.1-0.1-0.1c0,0-0.1-0.1-0.1-0.1c0,0,0-0.1,0-0.1c0,0,0-0.1,0-0.1
		c0-0.1-0.1-0.3-0.1-0.4c-0.1-0.1-0.1-0.3-0.2-0.4c0,0,0-0.1,0-0.1c0,0,0-0.1,0-0.1c-0.1-0.1-0.1-0.2-0.1-0.3c0-0.1-0.1-0.2-0.1-0.3
		c0,0,0-0.1,0.1-0.1c0,0,0-0.1,0-0.1c-0.1,0-0.1-0.1-0.1-0.2c0-0.1,0-0.2,0-0.3c0-0.1,0-0.2,0-0.2s-0.1-0.1-0.1-0.2
		c0.1,0,0.1-0.1,0-0.1c0-0.1,0-0.1,0-0.2c0.1,0,0.1-0.1,0-0.2c0-0.1,0-0.1,0-0.2c-0.1,0-0.2,0-0.2,0.1c0,0.1,0,0.2,0,0.2
		c0,0,0,0.1-0.1,0.1c0,0-0.1,0.1-0.1,0.1c0,0.2-0.1,0.3-0.1,0.5c0,0.2-0.1,0.3-0.2,0.4c0,0.1,0,0.2,0,0.4c0,0.1,0,0.2,0,0.3
		c-0.1,0.1-0.1,0.2-0.1,0.3c0,0,0,0.1,0,0.1c-0.1,0.2-0.1,0.3-0.1,0.4c0,0.1,0,0.2,0,0.2c0,0,0,0.1,0,0.1c0,0,0,0-0.1,0.1
		c0,0-0.1,0.1-0.1,0.1c0,0.2,0,0.3,0,0.4c-0.1,0.1-0.1,0.3-0.1,0.4c0.1,0,0.1,0,0.2,0c0.1,0,0.1,0,0.2,0c0.1,0.1,0.2,0.1,0.3,0
		c0.1,0,0.3,0,0.4,0c0.1-0.1,0.2-0.1,0.4-0.1c0.2,0,0.4,0,0.5,0c0.1,0,0.1,0,0.1-0.1c0,0,0-0.1,0.1-0.1c0,0.1,0.1,0.1,0.1,0.1
		C-238.7,422-238.7,422-238.6,422z M-239.8,417.5C-239.8,417.5-239.8,417.5-239.8,417.5c0,0.1,0,0.1,0,0.2
		C-239.7,417.7-239.7,417.6-239.8,417.5C-239.7,417.5-239.7,417.5-239.8,417.5z"/>
	<path class="st3" d="M-227.5,423.1C-227.5,423.1-227.6,423.2-227.5,423.1c-0.1,0.1-0.1,0.2-0.1,0.2c0,0,0,0.1,0,0.2s0,0.2-0.1,0.3
		c0,0.1-0.1,0.2-0.1,0.3c0,0.1-0.1,0.2-0.1,0.2c0,0.1,0,0.2-0.1,0.3s-0.1,0.2-0.1,0.3c0,0-0.1,0-0.1,0c0,0-0.1,0-0.1,0.1
		c0,0-0.1,0.1-0.2,0.1c-0.1,0.1-0.1,0.1-0.1,0.1c0,0-0.1,0-0.1,0s-0.1,0-0.1,0c-0.1,0-0.1,0-0.2,0.1s-0.1,0.1-0.2,0.1
		c0,0-0.1,0-0.1,0c0,0-0.1,0-0.1,0c-0.1,0.1-0.2,0.1-0.2,0.1c0,0,0,0-0.1,0c-0.1,0-0.1,0-0.1,0.1c0,0-0.1,0.1-0.1,0.1
		c-0.1,0-0.2,0-0.2,0c-0.1,0-0.2,0-0.2,0c-0.1,0-0.2,0-0.2,0c-0.1,0-0.2,0-0.2,0l-0.6-0.1c-0.1,0-0.1-0.1-0.2-0.1
		c-0.1-0.1-0.1-0.1-0.2-0.1c0-0.1-0.1-0.1-0.1-0.1c-0.1,0-0.1-0.1-0.1-0.1c-0.1,0-0.1,0.1,0,0.1s0.1,0.1,0.1,0.1c0,0.1,0,0.2,0,0.3
		c0,0.1,0.1,0.2,0.1,0.3c0,0.1,0,0.1,0,0.2s0,0.1,0.1,0.2c0,0,0,0.1,0,0.1s0,0.1,0,0.2c0,0.1,0,0.1,0.1,0.2c0,0.1,0.1,0.1,0.1,0.1
		c0,0,0,0.1,0,0.1c0,0,0,0.1,0,0.1c0,0.1,0,0.1,0.1,0.1c0,0,0.1,0.1,0.1,0.1c0,0.1,0,0.2,0.1,0.3c0,0.1,0.1,0.2,0.1,0.3
		c-0.1,0.3-0.1,0.4-0.2,0.5s-0.2,0.1-0.2,0.3c0-0.1-0.1-0.1-0.1,0c0,0-0.1,0.1-0.1,0.1c-0.1-0.1-0.1-0.1-0.2-0.1s-0.1,0-0.1,0
		c-0.1-0.1-0.1-0.1-0.1-0.1s0,0,0,0c0-0.1-0.1-0.2-0.1-0.2s-0.1-0.1-0.1-0.1c0-0.1,0-0.1-0.1-0.1c0,0-0.1,0-0.1,0c0-0.1,0-0.2,0-0.2
		c0-0.1-0.1-0.2-0.1-0.2c0,0,0-0.1,0-0.1c0,0,0-0.1,0-0.1s0-0.1,0-0.1c0,0,0-0.1,0-0.1c0,0,0-0.1,0-0.1c0,0,0-0.1,0-0.1
		c-0.1-0.1-0.1-0.2-0.1-0.3c0-0.1,0-0.1,0-0.1c0-0.1,0-0.1-0.1-0.2c0-0.1,0-0.1,0-0.2c0-0.2,0-0.3,0-0.4c0-0.1-0.1-0.2-0.1-0.2
		c0-0.2,0-0.4,0-0.6c0-0.2,0-0.4-0.1-0.6c0.1-0.1,0.1-0.1,0.1-0.2s0-0.2,0-0.3v-0.6c0-0.1,0-0.2,0-0.3s0-0.2,0-0.3c0,0,0-0.1,0-0.1
		s0-0.1,0-0.1c0-0.1,0-0.2,0-0.3c0-0.1,0-0.2,0-0.3c0-0.1-0.1-0.2,0-0.2c0,0,0,0,0,0c0-0.1-0.1-0.1,0-0.1c0,0,0,0,0-0.1
		c0-0.1,0-0.1,0-0.3c0-0.1,0-0.2-0.1-0.3c0-0.2,0-0.3,0-0.4c0.1-0.1,0.1-0.2,0.2-0.3c0.1-0.1,0.1-0.2,0.2-0.2c0.2,0,0.3,0,0.4,0.1
		c0.1,0.1,0.2,0.2,0.3,0.3c0,0.1,0,0.2,0,0.3c0,0.1,0,0.1-0.1,0.2s0,0.1,0.1,0.2c0.1,0,0.2-0.1,0.2-0.2c0.1,0,0.2-0.1,0.2-0.1
		s0.1-0.1,0.2-0.2c0,0,0-0.1,0.1-0.1c0,0,0.1-0.1,0.1-0.1c0,0,0.1,0,0.2-0.1c0.1,0,0.2-0.1,0.3-0.1c0.1-0.1,0.2-0.1,0.2-0.1
		c0.1,0,0.1-0.1,0.1-0.1c0.1,0,0.2,0,0.3-0.1c0.1,0,0.2-0.1,0.3,0c0.1,0,0.2,0,0.3,0c0.1,0,0.2,0,0.3,0.1c0.1,0,0.1,0.1,0.1,0.1
		c0,0,0.1,0.1,0.1,0.1c0.2,0.1,0.4,0.2,0.6,0.3c0,0,0.1,0.1,0.1,0.1c0,0,0.1,0.1,0.2,0.1c0,0,0,0.1,0.1,0.1c0,0,0,0.1,0,0.1
		c0.1,0,0.1,0.1,0.2,0.1s0.1,0.1,0.1,0.1s0.1,0.1,0.1,0.1c0,0,0.1,0.1,0.1,0.1c0,0.1,0.1,0.2,0.1,0.2c0,0.1,0,0.1,0.1,0.2
		c0,0.1,0.1,0.1,0.1,0.1c0,0.2,0,0.4,0,0.6c0,0.2,0,0.4,0,0.6L-227.5,423.1z M-228.6,423.1c-0.1-0.1-0.1-0.2-0.1-0.3
		c0-0.1,0.1-0.2,0.1-0.3c0,0,0-0.1,0-0.1c0,0,0-0.1,0-0.1c-0.1-0.1-0.1-0.1-0.1-0.2s-0.1-0.1-0.1-0.2c0,0-0.1-0.1-0.2-0.2
		s-0.2-0.2-0.2-0.2c-0.1,0-0.2,0-0.2-0.1c-0.1,0-0.2-0.1-0.2-0.2c-0.1,0-0.1,0-0.2,0c0,0-0.1-0.1-0.2-0.1c-0.1,0-0.1,0-0.2,0
		c-0.1,0-0.1,0-0.2,0c0,0.1-0.1,0.1-0.2,0.2s-0.2,0.1-0.2,0.2c-0.1,0-0.1,0-0.1,0c0,0-0.1,0-0.1,0c0,0.1-0.1,0.2-0.1,0.2
		c-0.1,0.2-0.2,0.4-0.4,0.5c-0.1,0.1-0.2,0.3-0.3,0.5c0,0,0,0.1-0.1,0.1c0,0.1,0,0.1-0.1,0.1c0,0.1,0,0.2,0,0.2c0,0,0,0.1,0,0.1
		c0,0.1,0,0.1,0,0.2c0,0,0,0.1,0,0.2c0,0,0,0.1,0,0.2c0,0.1,0,0.1,0,0.1c0,0.1,0.1,0.1,0.2,0.2c0.1,0.1,0.2,0.2,0.2,0.3
		c0.1,0,0.1,0,0.1,0c0,0,0,0.1,0.1,0.1c0.1,0,0.2,0,0.2,0c0,0,0,0,0.1,0.1c0,0,0.1,0,0.2,0c0.1,0,0.2,0,0.3,0c0.1,0,0.2,0,0.3,0
		c0.1,0,0.2,0,0.2,0c0.1,0,0.1,0,0.2-0.1c0.1,0,0.1-0.1,0.2-0.1c0.1,0,0.2,0,0.2,0c0.1,0,0.2,0,0.2-0.1c0,0,0.1,0,0.1-0.1
		c0,0,0.1,0,0.1-0.1c0,0,0.1,0,0.1,0c0,0,0.1,0,0.1,0c0-0.1,0-0.1,0-0.1c0,0,0-0.1,0-0.1c0.1,0,0.1-0.1,0.1-0.1c0-0.1,0-0.2,0.1-0.2
		c0,0,0,0,0-0.1s0-0.1,0-0.1c0,0,0.1-0.1,0.1-0.1S-228.6,423.1-228.6,423.1z"/>
	<path class="st3" d="M-222.7,420.1c0,0.1-0.1,0.1-0.1,0.1c0,0-0.1,0.1,0,0.2c-0.1,0-0.1,0.1-0.2,0.1c-0.1,0-0.1,0.1-0.1,0.1
		c-0.1,0-0.1,0-0.2,0s-0.2,0-0.3,0s-0.2,0-0.3,0c-0.1,0-0.2,0-0.3,0c0,0.3,0,0.5,0,0.8c0,0.3,0,0.5,0,0.8c0,0,0,0.1,0,0.1
		s0,0.1,0,0.1c0,0.1,0,0.1,0,0.2c0,0.1,0,0.1-0.1,0.2c0,0.1,0.1,0.1,0.1,0.2c0,0.1,0,0.1,0,0.3s0,0.2-0.1,0.2c0,0,0,0.1,0,0.2
		s0,0.2,0.1,0.2c0,0.1,0,0.2,0,0.2c0,0,0,0.1,0,0.1c0,0.1,0,0.1,0,0.2c0,0.1,0,0.1,0,0.2c0,0.1,0,0.1,0,0.2c0,0.1,0,0.1,0,0.1
		c0.1,0,0.1,0.1,0.1,0.2c0,0.1,0,0.2,0.1,0.2c0.1,0,0.1,0.1,0.2,0.1c0.1,0.1,0.1,0.1,0.2,0.1c0.1,0.1,0.1,0.1,0.2,0.2s0,0.1,0,0.1
		c0,0,0,0.1,0,0.1c0,0,0,0.1,0,0.2c-0.1,0-0.1,0.1-0.1,0.1s-0.1,0.1-0.1,0.1c-0.1,0-0.2,0-0.3,0c-0.1,0-0.1,0.1-0.2,0.1
		c-0.1-0.1-0.1-0.1-0.2-0.1c0,0-0.1,0-0.1,0c-0.1,0-0.1,0-0.1-0.1c0,0,0-0.1,0-0.1c0,0-0.1,0-0.1,0c0,0,0,0-0.1,0
		c0-0.1-0.1-0.1-0.1-0.2c0-0.1-0.1-0.1-0.2-0.2c-0.1,0-0.1-0.1-0.1-0.1c0,0,0-0.1,0-0.1c0,0,0-0.1,0-0.1c0,0,0-0.1-0.1-0.1
		c0,0,0-0.1,0-0.1s0-0.1,0-0.1c0-0.2,0-0.3,0-0.3c0,0,0-0.1,0-0.1c0-0.1,0-0.1,0-0.1c0,0,0-0.1,0-0.1c0-0.1-0.1-0.2,0-0.3
		c0,0,0-0.1,0-0.1c0,0,0-0.1,0-0.1c0,0,0-0.1,0-0.1c0-0.1,0-0.3,0-0.4s0-0.3,0-0.4c0-0.1,0-0.2,0-0.2c0-0.1,0-0.2,0-0.2
		c0-0.2,0-0.3,0-0.3c0-0.1,0-0.1,0-0.2c0-0.1,0-0.1,0-0.2s0-0.1,0-0.2c0-0.1,0-0.3,0-0.3s0-0.2,0-0.3c0-0.1,0-0.2,0-0.3
		c0-0.1,0-0.1,0-0.2c0,0-0.1,0-0.1,0c0,0-0.1,0-0.1-0.1c-0.1,0-0.2,0.1-0.3,0.1s-0.3,0-0.4,0c-0.1-0.1-0.2-0.1-0.2-0.1
		c0,0,0,0-0.1,0c-0.1,0-0.1,0-0.2-0.1s-0.1-0.1-0.2-0.1c0-0.1,0-0.2,0-0.2c0,0,0,0,0-0.1c0-0.1,0-0.1,0-0.2c0-0.1,0-0.1,0-0.2
		c0.1,0,0.1,0,0.1-0.1s0.1-0.1,0.1-0.1c0.1,0.1,0.3,0.1,0.4,0c0.1,0,0.3-0.1,0.4-0.1c0.1,0,0.2,0.1,0.3,0.1c0.1,0,0.2,0,0.3-0.1
		c0-0.2,0-0.5,0-0.7c-0.1-0.1-0.1-0.3-0.1-0.4l0.1-0.7c0-0.2,0-0.4,0-0.6c0-0.2,0-0.4,0-0.6c0,0,0-0.1,0-0.1c0-0.1,0-0.1-0.1-0.1
		c0.1-0.1,0.1-0.1,0.1-0.2c0-0.1,0-0.2,0.1-0.3c0-0.1,0-0.1,0-0.1c0,0-0.1,0-0.1-0.1c0-0.2,0-0.3,0.1-0.4c0.1-0.1,0.2-0.2,0.2-0.3
		c0.1,0,0.1,0,0.2,0c0.1,0,0.1,0,0.2,0.1c0,0,0,0,0.1-0.1c0,0,0.1,0,0.1-0.1c0,0,0,0,0,0.1c0,0.1,0,0.1,0.1,0.1c0,0,0.1,0.1,0.1,0.1
		c0,0.1,0.1,0.1,0.1,0.2c0,0.1,0,0.2,0,0.2c0,0,0,0,0,0.1c0,0,0,0.1,0,0.1c0,0,0,0.1,0,0.1c0,0.1,0,0.2,0,0.3c0,0.1,0,0.2,0,0.3
		c0,0.1,0,0.1,0,0.1c0,0,0,0.1,0,0.2c0,0.2,0,0.2,0,0.3c0,0,0,0.1,0,0.1c0,0,0,0.1,0,0.1c0,0.1,0,0.1,0,0.2c0,0,0,0.1,0,0.2
		c0,0.1,0,0.1,0,0.2c0,0,0,0.1,0,0.2c0,0,0,0.1,0,0.1c0,0.1,0,0.1,0,0.2s0,0.1,0,0.2c0,0.1,0,0.1-0.1,0.1c0,0.1,0.1,0.2,0,0.3
		s0,0.1,0,0.1c0,0.1,0,0.2,0,0.3c0,0.1,0.1,0.2,0.1,0.3c0.1,0,0.1,0,0.1,0c0,0,0.1,0,0.1,0c0.2,0.1,0.3,0.1,0.4,0.1
		c0.1,0,0.2-0.1,0.4-0.1c0.1,0.1,0.3,0.2,0.4,0.3C-222.7,419.9-222.6,420-222.7,420.1z"/>
	<path class="st3" d="M-220.7,418.3c-0.1,0.1-0.1,0.2-0.1,0.3c0,0.1,0,0.1,0.1,0.2c0,0,0,0.1,0,0.1c0,0,0,0.1,0,0.1
		c-0.1,0-0.1,0-0.2,0c-0.1,0-0.2,0.1-0.2,0.2c-0.1,0-0.1,0-0.2,0s-0.1,0-0.2,0c-0.1,0-0.1-0.1-0.1-0.1c0,0-0.1-0.1-0.2,0
		c0-0.1-0.1-0.1-0.1-0.2s-0.1-0.1-0.1-0.2c0-0.1,0-0.2,0-0.2c0,0,0,0-0.1-0.1c0,0,0,0-0.1-0.1s0-0.1,0-0.1c0.1,0,0.2-0.1,0.2-0.1
		c0,0,0.1,0,0.1,0c0,0,0,0,0.1-0.1c0,0,0.1,0,0.1,0c0.1-0.1,0.2-0.1,0.2-0.1c0,0,0.1,0,0.1,0c0.1,0,0.1,0,0.1,0c0,0,0.1,0,0.1,0
		c0,0,0.1,0,0.1,0c0,0,0,0,0,0c0,0,0,0,0,0c0,0,0,0,0.1,0c0,0,0,0.1,0,0.1c0,0.1,0,0.1,0,0.1C-220.9,418.3-220.8,418.3-220.7,418.3
		C-220.7,418.3-220.7,418.3-220.7,418.3z M-219.5,425.6c0,0.1-0.1,0.2-0.2,0.2c-0.1,0-0.2,0.1-0.2,0.1s-0.1,0.1-0.1,0.1
		c-0.2,0-0.4,0-0.6,0c-0.2,0-0.3,0-0.4-0.1c-0.1-0.1-0.2-0.2-0.3-0.2c-0.1,0-0.1-0.1-0.2-0.1c-0.1-0.2-0.2-0.3-0.2-0.3
		c0-0.1-0.1-0.1-0.1-0.2c-0.1-0.3-0.2-0.6-0.3-0.8c0-0.1,0.1-0.2,0.1-0.3c0-0.1,0-0.2-0.1-0.3c0,0,0.1,0,0.1-0.1s0-0.1,0.1-0.1
		c0-0.1-0.1-0.1-0.1-0.3c0-0.1,0-0.2,0.1-0.2c0-0.1,0-0.1,0-0.2c0-0.1,0-0.2,0-0.2c0-0.1,0-0.1,0-0.1c0,0,0-0.1-0.1-0.1
		c0-0.1,0.1-0.2,0.1-0.2c0-0.1,0-0.1,0-0.2c0-0.1,0-0.1-0.1-0.2c0.1-0.1,0.1-0.3,0.1-0.4c0-0.2,0-0.3,0.1-0.4c0,0,0.1-0.1,0.1-0.1
		c0.1,0,0.1-0.1,0.1-0.1c0.1,0,0.2,0,0.3,0.1c0.1,0.1,0.2,0.1,0.3,0.1c0,0.1,0,0.1,0,0.1c0.1,0,0.1,0,0.1,0c0,0,0.1,0.1,0.1,0.1
		c0,0.1,0,0.1,0.1,0.2c0,0.1,0,0.1-0.1,0.1c0,0,0,0.1,0,0.1c0,0.1,0,0.2,0,0.2c0,0,0,0.1,0,0.1c0,0.1,0,0.3,0,0.4c0,0.1,0,0.3,0,0.4
		c0,0,0,0.1,0,0.1c0,0,0,0.1,0,0.1c0,0,0,0.1,0,0.1c0,0,0,0.1,0,0.1c0,0.1,0,0.2,0,0.2c0,0.1,0,0.1,0.1,0.2c0,0-0.1,0.1,0,0.1
		s0,0.1,0,0.1c0,0.1,0,0.2,0,0.3c0,0.1,0,0.2,0.1,0.3c0,0.1,0,0.1,0,0.2c0,0,0,0.1,0,0.2c0.1,0,0.1,0,0.2,0c0.1,0,0.1,0,0.2,0
		c0.1,0,0.1,0.1,0.2,0.1c0,0,0.1,0.1,0.2,0c0,0.1,0.1,0.1,0.1,0.2c0,0,0.1,0.1,0.2,0c0,0.1,0,0.1,0,0.1c0,0,0,0.1,0.1,0.1
		c0,0.1,0,0.1,0,0.2C-219.6,425.6-219.6,425.6-219.5,425.6z"/>
	<path class="st3" d="M-215.2,420.1c0,0.1-0.1,0.1-0.1,0.1c0,0-0.1,0.1,0,0.2c-0.1,0-0.1,0.1-0.2,0.1c-0.1,0-0.1,0.1-0.1,0.1
		c-0.1,0-0.1,0-0.2,0s-0.2,0-0.3,0c-0.1,0-0.2,0-0.3,0c-0.1,0-0.2,0-0.3,0c0,0.3,0,0.5,0,0.8c0,0.3,0,0.5,0,0.8c0,0,0,0.1,0,0.1
		c0,0,0,0.1,0,0.1c0,0.1,0,0.1,0,0.2c0,0.1,0,0.1-0.1,0.2c0,0.1,0.1,0.1,0.1,0.2c0,0.1,0,0.1,0,0.3c0,0.1,0,0.2-0.1,0.2
		c0,0,0,0.1,0,0.2c0,0.1,0,0.2,0.1,0.2c0,0.1,0,0.2,0,0.2c0,0,0,0.1,0,0.1c0,0.1,0,0.1,0,0.2c0,0.1,0,0.1,0,0.2c0,0.1,0,0.1,0,0.2
		c0,0.1,0,0.1,0,0.1c0.1,0,0.1,0.1,0.1,0.2c0,0.1,0,0.2,0.1,0.2c0.1,0,0.1,0.1,0.2,0.1s0.1,0.1,0.2,0.1c0.1,0.1,0.1,0.1,0.2,0.2
		c0,0,0,0.1,0,0.1c0,0,0,0.1,0,0.1c0,0,0,0.1,0,0.2c-0.1,0-0.1,0.1-0.1,0.1s-0.1,0.1-0.1,0.1c-0.1,0-0.2,0-0.3,0s-0.1,0.1-0.2,0.1
		c-0.1-0.1-0.1-0.1-0.2-0.1c0,0-0.1,0-0.1,0c-0.1,0-0.1,0-0.1-0.1c0,0,0-0.1,0-0.1c0,0-0.1,0-0.1,0c0,0,0,0-0.1,0
		c0-0.1-0.1-0.1-0.1-0.2c0-0.1-0.1-0.1-0.2-0.2c-0.1,0-0.1-0.1-0.1-0.1c0,0,0-0.1,0-0.1c0,0,0-0.1,0-0.1c0,0,0-0.1-0.1-0.1
		c0,0,0-0.1,0-0.1s0-0.1,0-0.1c0-0.2,0-0.3,0-0.3c0,0,0-0.1,0-0.1c0-0.1,0-0.1,0-0.1c0,0,0-0.1,0-0.1c0-0.1-0.1-0.2,0-0.3
		c0,0,0-0.1,0-0.1c0,0,0-0.1,0-0.1c0,0,0-0.1,0-0.1c0-0.1,0-0.3,0-0.4c0-0.1,0-0.3,0-0.4c0-0.1,0-0.2,0-0.2s0-0.2,0-0.2
		c0-0.2,0-0.3,0-0.3c0-0.1,0-0.1,0-0.2c0-0.1,0-0.1,0-0.2c0-0.1,0-0.1,0-0.2c0-0.1,0-0.3,0-0.3s0-0.2,0-0.3c0-0.1,0-0.2,0-0.3
		c0-0.1,0-0.1,0-0.2c0,0-0.1,0-0.1,0c0,0-0.1,0-0.1-0.1c-0.1,0-0.2,0.1-0.3,0.1s-0.3,0-0.4,0c-0.1-0.1-0.2-0.1-0.2-0.1
		c0,0,0,0-0.1,0c-0.1,0-0.1,0-0.2-0.1s-0.1-0.1-0.2-0.1c0-0.1,0-0.2,0-0.2c0,0,0,0,0-0.1c0-0.1,0-0.1,0-0.2c0-0.1,0-0.1,0-0.2
		c0.1,0,0.1,0,0.1-0.1s0.1-0.1,0.1-0.1c0.1,0.1,0.3,0.1,0.4,0c0.1,0,0.3-0.1,0.4-0.1c0.1,0,0.2,0.1,0.3,0.1c0.1,0,0.2,0,0.3-0.1
		c0-0.2,0-0.5,0-0.7c-0.1-0.1-0.1-0.3-0.1-0.4l0.1-0.7c0-0.2,0-0.4,0-0.6c0-0.2,0-0.4,0-0.6c0,0,0-0.1,0-0.1c0-0.1,0-0.1-0.1-0.1
		c0.1-0.1,0.1-0.1,0.1-0.2c0-0.1,0-0.2,0.1-0.3c0-0.1,0-0.1,0-0.1s-0.1,0-0.1-0.1c0-0.2,0-0.3,0.1-0.4c0.1-0.1,0.2-0.2,0.2-0.3
		c0.1,0,0.1,0,0.2,0c0.1,0,0.1,0,0.2,0.1c0,0,0,0,0.1-0.1c0,0,0.1,0,0.1-0.1c0,0,0,0,0,0.1s0,0.1,0.1,0.1c0,0,0.1,0.1,0.1,0.1
		c0,0.1,0.1,0.1,0.1,0.2c0,0.1,0,0.2,0,0.2s0,0,0,0.1c0,0,0,0.1,0,0.1c0,0,0,0.1,0,0.1c0,0.1,0,0.2,0,0.3c0,0.1,0,0.2,0,0.3
		c0,0.1,0,0.1,0,0.1c0,0,0,0.1,0,0.2c0,0.2,0,0.2,0,0.3c0,0,0,0.1,0,0.1s0,0.1,0,0.1c0,0.1,0,0.1,0,0.2c0,0,0,0.1,0,0.2
		c0,0.1,0,0.1,0,0.2c0,0,0,0.1,0,0.2c0,0,0,0.1,0,0.1c0,0.1,0,0.1,0,0.2s0,0.1,0,0.2c0,0.1,0,0.1-0.1,0.1c0,0.1,0.1,0.2,0,0.3
		c0,0,0,0.1,0,0.1c0,0.1,0,0.2,0,0.3s0.1,0.2,0.1,0.3c0.1,0,0.1,0,0.1,0c0,0,0.1,0,0.1,0c0.2,0.1,0.3,0.1,0.4,0.1
		c0.1,0,0.2-0.1,0.4-0.1c0.1,0.1,0.3,0.2,0.4,0.3C-215.2,419.9-215.1,420-215.2,420.1z"/>
	<path class="st3" d="M-208.4,425.9C-208.4,425.9-208.5,426-208.4,425.9c-0.1,0.1-0.1,0.2-0.1,0.2c-0.1,0-0.1,0-0.2,0
		s-0.1,0-0.1,0.1c-0.1,0-0.1,0-0.2,0c-0.1,0-0.1,0-0.2-0.1l-0.2,0c-0.1,0-0.1,0-0.1-0.1c0,0,0-0.1-0.1-0.1c-0.1,0-0.2-0.1-0.2-0.1
		c0,0,0,0,0-0.1c-0.1-0.1-0.2-0.1-0.2-0.2c0-0.1-0.1-0.1-0.1-0.1c0-0.1,0-0.2-0.1-0.3s-0.1-0.2-0.1-0.3c0,0-0.1-0.1-0.1-0.1
		c0,0-0.1-0.1-0.1-0.1c-0.1,0-0.1,0-0.1,0s0,0.1-0.1,0.1c-0.1,0-0.1,0.1-0.2,0.2c0,0.1-0.1,0.1-0.1,0.1c-0.1,0-0.2,0.1-0.2,0.1
		s-0.1,0.1-0.2,0.1c-0.2,0.1-0.3,0.2-0.4,0.2c-0.1,0-0.2,0.1-0.2,0.1c-0.1,0-0.1,0-0.2,0s-0.1,0-0.2,0c-0.2-0.1-0.3-0.1-0.4,0
		c-0.1,0-0.2,0-0.3,0c-0.1-0.1-0.3-0.2-0.4-0.2c-0.1,0-0.2-0.1-0.3-0.1c-0.1,0-0.1,0-0.1-0.1s0-0.1,0-0.1c-0.1,0-0.1,0-0.2,0
		c-0.1,0-0.1-0.1-0.2-0.2c-0.1-0.1-0.1-0.2-0.2-0.2s-0.1-0.2-0.1-0.3c0-0.1-0.1-0.2-0.1-0.2c0-0.1,0-0.1,0-0.1s0,0,0,0
		c0-0.1,0-0.2,0-0.3s0-0.2,0-0.3c0.1,0,0.1-0.1,0.1-0.2c0-0.1,0-0.2,0-0.3c0-0.1,0.1-0.2,0.1-0.3c0-0.1,0.1-0.2,0.1-0.3
		c0-0.1,0-0.2,0-0.3c0-0.1,0-0.2,0.1-0.2c0-0.1,0-0.2,0-0.4c0-0.1,0-0.3,0.1-0.4c0-0.1,0.1-0.2,0.1-0.3c0.1-0.1,0-0.2,0-0.3
		c0,0,0.1,0,0.1-0.1s0-0.1,0-0.1c0.1-0.1,0.1-0.1,0.1-0.1c0,0,0,0,0-0.1c0.1-0.1,0.2-0.1,0.2-0.1c0,0,0.1,0,0.2-0.1
		c0,0,0.1,0,0.1,0.1c0,0,0.1,0.1,0.1,0.1c0.1,0,0.2,0,0.3,0.1l0.1,0.2c0,0.1,0,0.2,0,0.3c0,0.1-0.1,0.2-0.1,0.3c0,0.1,0,0.1,0,0.2
		c0,0.1,0,0.2-0.1,0.2c0,0.1,0,0.2,0,0.3c0,0.1,0,0.1,0,0.2c0,0,0,0.1-0.1,0.1c0,0.1,0,0.1,0,0.1c-0.1,0.2-0.2,0.3-0.2,0.4
		c0,0.1,0,0.2,0,0.3c-0.1,0.1-0.1,0.1-0.1,0.2c0,0.1,0,0.2-0.1,0.2c0,0,0.1,0.1,0.1,0.2s0,0.2,0,0.2s0,0.1,0,0.2
		c0,0.1,0.1,0.1,0.2,0.1c0,0.1,0.1,0.2,0.1,0.2c0.1,0,0.2,0,0.3,0.1c0.1,0,0.1,0.1,0.2,0.1c0.1,0,0.2,0.1,0.2,0.1c0.1,0,0.2,0,0.3,0
		c0.1,0,0.1,0,0.2,0c0.1,0,0.1,0,0.2-0.1c0-0.1,0.1-0.1,0.1-0.1c0.1,0,0.1,0,0.1-0.1c0.1-0.1,0.2-0.2,0.2-0.3
		c0.1-0.1,0.1-0.2,0.1-0.3c0.1-0.2,0.2-0.3,0.3-0.4c0.1-0.1,0.1-0.3,0.1-0.4c0-0.1,0-0.2,0-0.2c0,0,0,0,0,0c0-0.1,0-0.2,0-0.2
		c0,0,0,0,0-0.1c0-0.1,0-0.2,0-0.2c0,0,0-0.1,0-0.1c0-0.1,0-0.2,0-0.2s0-0.2,0-0.2c0.1-0.1,0.1-0.1,0.1-0.2c0,0,0-0.1,0-0.1
		c-0.1-0.1-0.1-0.1-0.1-0.2s0-0.1,0-0.1c0,0,0-0.1,0.1-0.1c0-0.1,0.1-0.1,0.1-0.2c0-0.1,0.1-0.2,0.1-0.3s0-0.1,0-0.2
		c0.1,0,0.1,0,0.1,0c0,0,0-0.1,0.1-0.1c0,0,0.1,0,0.1,0s0.1,0,0.1,0c0,0,0.1,0,0.1,0c0,0,0.1,0,0.1,0c0.1,0,0.2,0.1,0.3,0.1
		s0.2,0.1,0.3,0.1c0,0.1,0,0.1,0.1,0.2c0,0.1,0.1,0.1,0.1,0.2c0,0,0,0.1,0,0.1s0,0.1-0.1,0.1c0,0,0,0.1,0,0.1s0,0.1,0.1,0.1
		c-0.1,0.1-0.1,0.1,0,0.2s0.1,0.2,0.1,0.2c0,0.1,0,0.2,0,0.2c0,0,0,0.1,0,0.1c0,0.1,0,0.1,0,0.2c0,0.1,0,0.1,0,0.2c0,0,0,0.1,0,0.1
		c0,0,0,0.1,0,0.1c0,0,0,0.1,0,0.1c0,0,0,0.1,0.1,0.1c0,0.1,0,0.1,0,0.2s0.1,0.1,0.1,0.1c0,0.1,0,0.1,0,0.2c0,0.1,0,0.1,0,0.2
		c0,0.1,0,0.3,0.1,0.4c0,0.1,0.1,0.2,0.1,0.4c0.1,0.1,0.1,0.2,0.1,0.3c0,0.1,0,0.2,0.1,0.3c0,0,0.1,0.1,0.1,0.1
		c0.1,0.1,0.1,0.1,0.2,0.1c0.1,0.1,0.1,0.1,0.1,0.1s0.1,0.1,0.1,0.1L-208.4,425.9z"/>
	<path class="st3" d="M-202.4,426.2c0,0.1,0,0.1-0.1,0.2c-0.1,0.1-0.1,0.2-0.2,0.1c-0.1,0-0.2,0-0.3,0c-0.1,0-0.2,0-0.3,0
		c0-0.1-0.1-0.1-0.1-0.1c-0.1,0-0.1-0.1-0.2-0.1c-0.1,0-0.1-0.1-0.1-0.1c0,0-0.1-0.1-0.1-0.2c0,0-0.1-0.1-0.1-0.1
		c0-0.1-0.1-0.1-0.1-0.1c0-0.1,0-0.1,0-0.1c0,0-0.1-0.1-0.1-0.1c0-0.1-0.1-0.2-0.1-0.3c0-0.1-0.1-0.2-0.1-0.3c-0.1,0-0.1,0-0.1,0
		c0,0-0.1,0.1-0.1,0.1c-0.1,0.1-0.1,0.1-0.1,0.2s0,0.1-0.1,0.1c-0.1,0.1-0.2,0.1-0.3,0.1c-0.2,0.1-0.3,0.2-0.4,0.2
		c-0.1,0-0.2,0.1-0.3,0.1c-0.1,0-0.3,0-0.4-0.1c-0.1-0.1-0.3-0.1-0.4,0c0-0.1-0.1-0.1-0.2-0.1s-0.1-0.1-0.2-0.1c0,0-0.1,0-0.1,0
		c0,0-0.1,0-0.1,0c0-0.1-0.1-0.1-0.1-0.1c0,0-0.1-0.1-0.1-0.1v-0.2c0-0.1-0.1-0.1-0.1-0.1c-0.1,0-0.1-0.1-0.1-0.1c0,0,0-0.1,0-0.1
		c0-0.1,0-0.1-0.1-0.1c0-0.1,0-0.2-0.1-0.3c0-0.1-0.1-0.2-0.1-0.3c0-0.1,0-0.2,0-0.3c0-0.1,0-0.2-0.1-0.2c0-0.1,0-0.3,0-0.4
		c0-0.2,0-0.3,0-0.5s0-0.3,0.1-0.5c0-0.1,0.1-0.3,0.2-0.4c0-0.1,0-0.1,0-0.1c0,0,0-0.1,0-0.1c0,0,0.1,0,0.1,0c0,0,0.1,0,0.1,0
		c0.1-0.2,0.3-0.5,0.5-0.7c0.1-0.2,0.2-0.3,0.2-0.3s0.1-0.1,0.1-0.2h0.2c0.1-0.1,0.2-0.1,0.2-0.2s0.1-0.1,0.3-0.1
		c0,0,0.1-0.1,0.2-0.1c0.1,0,0.3,0,0.4,0c0.1,0,0.3,0,0.4,0c0.1,0.1,0.1,0.1,0.2,0.1c0.1,0,0.2,0,0.3,0c0.1,0,0.2,0.1,0.3,0.1
		s0.2,0.1,0.3,0.1c0.1-0.1,0.1-0.1,0.1-0.2c0-0.1,0-0.2-0.1-0.3c0-0.1,0.1-0.2,0-0.3c0-0.1,0-0.2,0-0.3c0,0,0-0.1,0-0.1
		c0,0,0-0.1,0-0.1c0-0.2,0-0.3,0-0.4c0-0.1,0-0.3,0-0.4c0-0.1,0-0.2,0.1-0.4c0-0.1,0-0.2-0.1-0.3c0-0.1,0-0.1,0.1-0.2
		c0-0.1,0-0.1,0.1-0.2c0-0.1,0-0.1,0-0.2c0-0.1,0-0.1,0.1-0.2c0-0.1,0-0.1,0-0.2s0-0.1,0-0.2c0.1-0.1,0.2-0.1,0.2-0.1
		s0.1-0.1,0.2-0.2c0.1,0,0.1,0,0.2,0.1c0,0,0.1,0,0.2,0.1c0,0.1,0,0.1,0,0.2s0,0.2,0,0.2s0,0.1,0,0.2c0,0.1,0,0.1,0.1,0.1
		c-0.1,0.1-0.1,0.2,0,0.3c0,0.1,0,0.2,0,0.3s0,0.2,0,0.3c0,0.1,0,0.2,0,0.3c0,0.1,0,0.1,0,0.2c0,0.1,0,0.1,0,0.2c0,0,0,0.1,0,0.1
		c0,0,0,0.1,0,0.1c0,0.1,0,0.1,0.1,0.2c0,0,0,0.1,0,0.2c0,0.1,0,0.1-0.1,0.2c0,0,0,0.1,0,0.1c0,0,0,0,0.1,0.1c0,0.1,0,0.1,0,0.2
		c0,0.1,0,0.1,0.1,0.2c-0.1,0.1-0.1,0.2,0,0.3c0,0.1,0,0.2,0,0.2c0,0.1,0.1,0.2,0.1,0.2c0,0,0,0.1-0.1,0.1c0,0.1,0,0.1,0,0.1
		c0,0,0,0.1,0,0.1s0,0.1,0,0.1c-0.1,0.2-0.1,0.3,0,0.4s0.1,0.2,0.1,0.2c0,0,0,0.1,0,0.1c0,0,0,0.1,0,0.1c0,0.2,0,0.3,0,0.5
		c0,0.1,0,0.3,0,0.5c0,0,0,0.1,0,0.1c0,0.1,0,0.1,0,0.1c-0.1,0.2-0.1,0.3-0.1,0.3s0,0.2-0.1,0.3c0,0.1,0,0.2,0.1,0.3
		c0,0.1,0,0.2,0,0.3c0,0,0,0.1,0,0.1c0,0,0,0.1,0,0.1c0,0.1,0,0.1,0,0.1c0,0,0.1,0.1,0.1,0.1c0,0.1,0,0.1,0,0.2
		c0,0.1,0.1,0.1,0.1,0.2s0,0.1,0.1,0.2c0,0.1,0,0.1,0,0.2c0,0.1,0,0.1,0.1,0.2s0.1,0.1,0.1,0.2c0,0.1,0.1,0.1,0.1,0.2
		C-202.4,426-202.4,426.1-202.4,426.2z M-204,422.6c-0.1,0-0.1-0.1-0.1-0.1c0-0.1,0-0.1,0-0.2c0-0.2,0-0.4,0-0.5c0-0.1,0-0.3,0-0.3
		c0.1-0.1,0.1-0.1,0-0.2c-0.1-0.1-0.1-0.2-0.1-0.2c-0.1,0-0.2-0.1-0.3-0.1c-0.1,0-0.2,0-0.3,0c-0.1-0.1-0.1-0.1-0.2-0.1
		c-0.1,0-0.1,0-0.2,0c-0.1,0-0.1,0-0.2,0c-0.1,0-0.1,0-0.1,0c-0.1,0.1-0.2,0.2-0.3,0.3c-0.1,0.1-0.2,0.2-0.2,0.3
		c-0.1,0-0.1,0.1-0.2,0.1c-0.1,0.1-0.1,0.1-0.1,0.2c-0.1,0-0.2,0.1-0.2,0.2c0,0.1-0.1,0.2-0.1,0.3c0,0.1,0,0.2,0,0.4s0,0.2-0.1,0.3
		c0,0,0,0.1,0,0.1c0,0,0,0.1,0,0.1c0,0-0.1,0-0.1,0c0,0,0,0,0,0.1c0,0,0,0.1,0,0.1c0,0,0,0,0,0c0,0.1,0,0.2,0,0.3c0,0.1,0,0.2,0,0.3
		c0.1,0.1,0.1,0.1,0.1,0.2s0,0.2,0.1,0.3c0.1,0.1,0.2,0.1,0.2,0.2c0.1,0.1,0.2,0.1,0.2,0.1c0,0,0.1,0,0.1,0c0,0,0.1,0,0.1,0
		c0,0,0.1,0,0.1,0c0,0,0.1,0,0.1,0c0.1,0,0.2,0,0.2,0c0,0,0-0.1,0.1-0.1c0.1-0.1,0.2-0.1,0.3-0.1c0,0,0.1,0,0.1-0.1
		c0.1-0.1,0.1-0.2,0.2-0.2c0,0,0.1,0,0.1,0c0-0.1,0.1-0.2,0.2-0.2c0.1,0,0.2,0,0.3,0c0-0.1,0-0.2,0-0.3c0.1,0,0.1-0.1,0.1-0.1
		c0-0.1,0-0.1,0-0.2c0.1-0.1,0.1-0.2,0.1-0.2c0,0,0-0.1,0-0.1C-204.1,422.8-204,422.7-204,422.6C-204,422.6-204,422.6-204,422.6z"/>
	<path class="st3" d="M-196.3,421.8c0,0.1,0,0.1-0.1,0.1s0,0.1,0,0.1c0,0.1-0.1,0.1-0.2,0.1s-0.1,0.1-0.1,0.1c-0.1,0-0.1,0-0.2,0
		s-0.1,0.1-0.1,0.1c-0.1,0-0.1,0-0.2,0c-0.1,0-0.1,0-0.2,0c0,0-0.1,0-0.1,0c-0.1,0-0.1,0-0.1-0.1c-0.1,0-0.3,0.1-0.4,0.1
		s-0.3,0-0.4,0c-0.1,0-0.1,0-0.1,0s0,0.1-0.1,0.1c-0.1,0-0.2,0-0.3,0c-0.1,0-0.2,0-0.3,0.1c-0.1,0-0.2,0-0.3,0c-0.1,0-0.2,0-0.3-0.1
		c-0.1,0-0.2,0-0.2,0c-0.1,0-0.2,0-0.2,0c-0.1,0-0.1,0.1-0.1,0.1c0,0,0,0-0.1,0c0,0-0.1,0-0.1,0c0,0.1,0.1,0.2,0.1,0.3
		c0,0.1,0.1,0.2,0.1,0.2c0,0.1,0,0.2,0.1,0.3s0.1,0.2,0.2,0.3c0.1,0.1,0.1,0.2,0.2,0.2c0.1,0.1,0.1,0.1,0.1,0.1
		c0.1,0.1,0.2,0.1,0.2,0.1s0.1,0,0.1,0c0,0,0,0.1,0.1,0.1c0.1,0,0.2,0.1,0.3,0.1s0.2,0,0.3,0s0.1,0,0.1-0.1c0.1,0,0.1,0,0.2,0
		c0,0,0.1,0,0.1,0c0,0,0.1,0,0.1,0s0.1,0,0.1,0c0,0,0.1,0,0.1,0s0.1,0,0.1,0c0.1,0,0.1,0,0.2-0.1s0.1,0,0.2,0c0,0,0.1-0.1,0.2-0.1
		c0,0,0.1,0,0.1,0c0,0,0.1,0,0.1,0c0.1,0,0.1,0,0.1,0s0.1,0,0.1,0c0,0,0.1,0,0.1,0.1c0,0,0.1,0,0.1,0.1c0,0.1,0,0.1,0,0.2
		c0,0.1,0,0.1-0.1,0.1c0,0.1,0,0.1,0,0.1c0,0-0.1,0.1,0,0.1c-0.1,0-0.2,0.1-0.2,0.1c-0.1,0-0.2,0.1-0.2,0.2c0,0-0.1,0-0.1,0
		s-0.1,0.1-0.1,0.1s-0.1,0-0.1,0s-0.1,0-0.1,0c-0.1,0-0.2,0-0.3,0c0,0-0.1,0-0.2,0c-0.1,0-0.1,0-0.1,0c0,0-0.1,0-0.1,0l-0.2,0.1
		c-0.1,0-0.2,0-0.2,0c0,0-0.1,0-0.2,0c-0.1,0-0.1,0-0.2,0s-0.1,0-0.2,0c-0.1,0-0.1,0-0.1,0c0,0,0-0.1-0.1-0.1c-0.1,0-0.1,0-0.2,0
		c-0.1,0-0.1,0-0.2,0c-0.1-0.1-0.2-0.1-0.3-0.2c-0.1-0.1-0.2-0.1-0.3-0.2c0-0.1-0.1-0.1-0.1-0.1c0,0-0.1-0.1-0.2-0.1
		c0-0.1-0.1-0.2-0.2-0.2c-0.1-0.1-0.1-0.1-0.2-0.2c0,0,0-0.1,0-0.1c0-0.1,0-0.1,0-0.1c-0.1-0.1-0.1-0.1-0.2-0.2
		c-0.1-0.1-0.1-0.2-0.1-0.3c-0.1-0.1-0.1-0.3-0.1-0.4c0-0.1,0-0.2,0-0.3c0-0.1,0-0.1-0.1-0.2c0-0.1,0-0.1,0-0.2s0-0.1,0-0.1
		c0,0,0-0.1,0-0.1c0,0,0-0.1,0-0.1s0-0.1,0-0.2c0-0.1,0-0.1,0-0.2c0,0,0-0.1,0.1-0.1c0-0.1,0-0.2,0-0.2s0-0.1,0-0.2
		c0.1,0,0.1-0.1,0.1-0.1c0-0.1,0.1-0.1,0.1-0.1c0-0.1,0-0.1,0-0.2c0,0,0.1-0.1,0.1-0.1c0,0,0-0.1,0-0.2c0-0.1,0.1-0.1,0.2-0.2
		c0.1-0.1,0.1-0.1,0.2-0.2s0.1-0.1,0.1-0.1c0.1-0.1,0.2-0.2,0.3-0.3c0.1-0.1,0.2-0.2,0.3-0.3c0.1,0,0.1,0,0.1-0.1
		c0,0,0.1-0.1,0.1-0.1c0,0,0-0.1,0.1-0.1c0,0,0.1-0.1,0.1-0.1c0,0,0.1,0,0.1,0c0.1,0,0.1,0,0.1,0c0.1,0,0.2-0.1,0.4-0.1
		c0.1,0,0.2-0.1,0.4-0.1c0.1,0,0.2,0,0.3,0c0.1,0,0.2,0.1,0.4,0.2c0.2,0,0.3,0.1,0.4,0.1s0.2,0.1,0.3,0.1c0.1,0.1,0.1,0.2,0.2,0.2
		c0.1,0.1,0.2,0.1,0.2,0.2c0,0.1,0,0.1,0.1,0.2c0,0.1,0.1,0.1,0.2,0.1c-0.1,0.1-0.1,0.2,0,0.2s0.1,0.1,0.1,0.1c0,0,0,0.1,0,0.1
		c0,0,0,0.1,0,0.1c0,0.1,0,0.1,0.1,0.1c0,0,0.1,0.1,0.1,0.1c0,0,0,0.1,0,0.1c0,0,0,0.1,0.1,0.1c0,0.1,0,0.2,0,0.3
		C-196.3,421.6-196.3,421.7-196.3,421.8z M-197.5,421.1c0-0.1-0.1-0.1-0.1-0.2c0,0,0-0.1,0-0.2c0,0-0.1,0-0.1,0s-0.1,0-0.1,0
		c0-0.1,0-0.1,0-0.1c0,0,0-0.1-0.1-0.1c-0.2,0-0.3,0-0.4-0.1c-0.1-0.1-0.3-0.1-0.4,0l-0.3,0.1c-0.1,0.1-0.2,0.1-0.3,0.2
		c-0.1,0-0.2,0.1-0.3,0.1c0,0-0.1,0.1-0.1,0.1s0,0.1-0.1,0.1c0,0-0.1,0-0.1,0c0,0-0.1,0-0.1,0c0,0.1,0,0.1-0.1,0.1
		c0,0-0.1,0.1-0.1,0.1s-0.1,0-0.1,0.1c0,0-0.1,0.1-0.1,0.1c0,0.1-0.1,0.1-0.1,0.1s-0.1,0.1-0.1,0.1c0,0.1,0,0.1,0,0.1
		c0,0,0,0.1,0.1,0.1c0,0,0,0,0.1,0c0.1,0,0.1,0,0.2,0c0.1,0,0.2,0,0.2,0c0.1,0,0.1,0,0.2,0c0.1-0.1,0.1-0.1,0.2-0.1
		c0.2,0,0.3,0,0.3,0c0.1,0,0.1,0,0.2,0c0.1,0,0.1,0,0.2,0c0.1,0,0.1,0,0.2,0c0.1,0,0.1,0,0.2,0c0,0,0.1,0,0.2,0c0.2,0,0.3,0,0.4,0
		s0.2,0,0.3,0C-197.5,421.4-197.5,421.2-197.5,421.1z"/>
	<path class="st3" d="M-190.3,423.2c0,0.2,0,0.5,0,0.7c0,0.3-0.1,0.5-0.2,0.7c0,0.1-0.1,0.2-0.1,0.3c0,0.1,0,0.1-0.1,0.1
		c0,0.1,0,0.2,0,0.2c0,0-0.1,0.1-0.1,0.1c-0.1,0-0.1,0-0.2,0s-0.1,0-0.2,0.1c0,0.1-0.1,0.1-0.1,0.1s-0.1,0-0.1,0
		c-0.1,0.1-0.2,0.1-0.3,0.1s-0.2,0-0.2,0c0,0-0.1,0.1-0.1,0.1c0,0-0.1,0.1-0.1,0.1c-0.1,0-0.1,0-0.1,0c0,0,0-0.1-0.1-0.1
		c-0.1,0-0.2,0-0.2,0c0,0-0.1-0.1-0.2-0.1c0,0-0.1,0-0.1,0c0,0-0.1,0.1-0.1,0.1c-0.1,0-0.1,0-0.2,0c0,0-0.1,0-0.1-0.1
		c-0.1,0-0.1,0-0.1,0c0,0-0.1,0-0.1,0c-0.1,0-0.2,0-0.3,0c-0.1,0-0.2,0-0.3,0c0-0.1-0.1-0.1-0.1-0.1c-0.1,0-0.1,0-0.2,0
		c0,0,0-0.1-0.1-0.1c0,0-0.1,0-0.1-0.1c0,0-0.1,0-0.2,0c-0.1,0-0.1-0.1-0.2-0.1c0-0.1-0.1-0.1-0.2-0.2c-0.1-0.1-0.1-0.1-0.1-0.1
		c0,0,0-0.1,0-0.1c0-0.1,0-0.1-0.1-0.1c0-0.1,0-0.1,0-0.2c0,0,0-0.1,0-0.1c0,0,0,0,0-0.1c0,0,0-0.1-0.1-0.1c0-0.1,0-0.1,0-0.2
		c0-0.1,0-0.1,0-0.2c0,0-0.1-0.1-0.1-0.2c0-0.1,0-0.2,0-0.3c0-0.1,0-0.2,0-0.3s0-0.2,0-0.2c0.1-0.1,0.2-0.1,0.3-0.2
		c0.1-0.1,0.2-0.2,0.3-0.2c0.1,0,0.2,0.1,0.3,0.1c0.1,0,0.2,0.1,0.3,0.2c0,0.1,0,0.1,0,0.2c0,0,0,0.1,0,0.1c0,0.1,0,0.2-0.1,0.2
		c0,0.1,0,0.1,0,0.2c0,0.1,0,0.1,0,0.1c0,0.1,0.1,0.1,0,0.2c0,0,0,0,0,0.1c0,0.1,0,0.1,0.1,0.1c0,0,0.1,0.1,0.1,0.2
		c0.1,0.1,0.2,0.1,0.3,0.2c0.1,0,0.2,0.1,0.4,0.1c0,0,0.1,0,0.1,0c0.1,0,0.1,0,0.1-0.1c0.1,0,0.1,0,0.2,0c0.1,0,0.1,0,0.2-0.1
		c0.1,0,0.1,0,0.2,0c0.1,0,0.2,0,0.2,0c0.1,0,0.2,0,0.2,0s0.1-0.1,0.2-0.1c0.1,0,0.3,0,0.3-0.1c0.1,0,0.1-0.1,0.2-0.2
		c0-0.1,0.1-0.1,0.1-0.2c0-0.1,0.1-0.1,0.2-0.1c0-0.1,0-0.1,0-0.2c0,0,0-0.1,0-0.2c0-0.1,0-0.1-0.1-0.1s-0.1,0-0.2-0.1
		c0-0.1-0.1-0.2-0.2-0.2c-0.1,0-0.2-0.1-0.2-0.2c-0.1,0-0.2,0-0.3,0c-0.1,0-0.1-0.1-0.2-0.1c0,0-0.1,0-0.1,0s-0.1,0-0.1,0
		c-0.1,0-0.1,0-0.1,0c0,0-0.1,0-0.1,0.1c0-0.1-0.1-0.1-0.1-0.1c0,0-0.1,0-0.1-0.1c-0.1,0-0.3,0-0.4,0c-0.1,0-0.3-0.1-0.4-0.1
		c0,0-0.1,0-0.1,0s-0.1,0-0.1,0c0-0.1-0.1-0.2-0.2-0.2c0,0,0-0.1-0.1-0.1c0,0-0.1,0-0.1,0c0-0.1,0-0.1,0-0.2s-0.1-0.1-0.1-0.1
		c0-0.1,0-0.2-0.1-0.3c0-0.1-0.1-0.2-0.1-0.3c0-0.1,0-0.2,0-0.2c0,0,0-0.1,0-0.1c0-0.1,0-0.3,0.1-0.4s0.1-0.3,0.1-0.4
		c0.1,0,0.1-0.1,0.1-0.1s0-0.1,0-0.2c0.1,0,0.2-0.1,0.2-0.2c0.1,0,0.1,0,0.2,0s0.1-0.1,0.1-0.1c0.1,0,0.1,0,0.1,0s0.1-0.1,0.1-0.1
		c0.1,0,0.1,0,0.1,0s0.1,0,0.1,0c0.1,0,0.1,0,0.1-0.1c0,0,0.1,0,0.1-0.1c0.1,0,0.2,0,0.3,0s0.1,0,0.2,0c0.1,0,0.1,0,0.1,0
		c0.1,0,0.2,0,0.3,0c0.1,0,0.2,0,0.3,0c0.1,0,0.1,0,0.2,0s0.1,0,0.2,0c0,0,0.1,0.1,0.1,0.2c0.1,0,0.1,0,0.1,0s0.1,0,0.1,0.1
		s0.1,0.1,0.1,0.1c0,0,0.1,0,0.1,0c0,0,0,0.1,0,0.1c0,0,0.1,0.1,0.1,0.1c0.1,0.1,0.1,0.2,0.1,0.3c0,0.1,0,0.2,0,0.3
		c0,0-0.1,0.1-0.1,0.1c0,0-0.1,0.1-0.1,0.1c0,0,0,0.1-0.1,0.1c0,0.1-0.1,0.1-0.1,0.1c-0.1,0.1-0.1,0.2-0.1,0.1c0,0,0-0.1,0-0.1
		c0,0,0,0-0.1,0c0,0-0.1,0-0.2,0.1c-0.1-0.1-0.2-0.2-0.2-0.2c-0.1-0.1-0.1-0.1-0.1-0.3c0,0-0.1-0.1-0.2-0.1c-0.1,0-0.1,0-0.2-0.1
		c-0.1,0-0.1,0-0.2,0.1s-0.2,0-0.2,0c-0.1,0-0.1,0-0.1,0c0,0-0.1,0.1-0.2,0c0,0-0.1,0-0.1,0.1c0,0,0,0.1,0,0.1
		c-0.1,0-0.2,0.1-0.3,0.2c-0.1,0.1-0.1,0.2-0.1,0.3c-0.1,0.2-0.1,0.2-0.1,0.3c0,0,0.1,0.1,0.1,0.1c0.1,0.1,0.2,0.2,0.2,0.1
		s0.1,0,0.2,0.1c0.1,0,0.2,0,0.3,0c0.1,0,0.1,0.1,0.1,0.1c0,0,0.1,0,0.1,0c0,0,0.1,0,0.1,0c0.1,0.1,0.2,0.1,0.3,0.1
		c0.1,0,0.2,0.1,0.3,0.1c0.1,0,0.1,0,0.1,0.1c0,0,0.1,0,0.1,0.1c0.1,0,0.2,0.1,0.2,0.1s0.1,0,0.1,0.1c0.1,0,0.2,0,0.2,0
		s0.1,0.1,0.2,0.1c0.1,0.1,0.1,0.1,0.2,0.2s0.2,0.2,0.2,0.2c0,0.1,0,0.2,0.1,0.2C-190.4,423.1-190.4,423.2-190.3,423.2z"/>
</g>
<rect x="-258" y="415.6" class="st1" width="77.9" height="10.5"/>
<text transform="matrix(1 0 0 1 -504.0814 833.6404)" style="display:none;fill:#FFFFFF;enable-background:new    ; font-family:'Sunshiney'; font-size:17px;">Intereses</text>
</svg>
